<mxfile host="app.diagrams.net" modified="2020-12-18T14:53:30.878Z" agent="5.0 (Windows NT 10.0; Win64; x64) AppleWebKit/537.36 (KHTML, like Gecko) Chrome/89.0.4349.0 Safari/537.36" etag="-xdrycDOeYUsNsCnMfen" version="14.0.5" type="github">
  <diagram name="Page-1" id="16e2658f-23c8-b752-8be9-c03fbebb8bbe">
    <mxGraphModel dx="1038" dy="580" grid="1" gridSize="10" guides="1" tooltips="1" connect="1" arrows="1" fold="1" page="1" pageScale="1" pageWidth="1100" pageHeight="850" background="#ffffff" math="0" shadow="0">
      <root>
        <mxCell id="0" />
        <mxCell id="1" parent="0" />
        <mxCell id="1yDFx60XTyYk_7Jug5px-13" style="edgeStyle=orthogonalEdgeStyle;rounded=0;orthogonalLoop=1;jettySize=auto;html=1;exitX=1;exitY=0.5;exitDx=0;exitDy=0;exitPerimeter=0;endArrow=oval;endFill=1;" edge="1" parent="1" source="6d250d948d6a1778-6">
          <mxGeometry relative="1" as="geometry">
            <mxPoint x="290" y="280" as="targetPoint" />
          </mxGeometry>
        </mxCell>
        <mxCell id="6d250d948d6a1778-6" value="" style="verticalLabelPosition=bottom;shadow=0;dashed=0;align=center;fillColor=#ffffff;html=1;verticalAlign=top;strokeWidth=1;shape=mxgraph.electrical.resistors.resistor_1;rounded=1;comic=0;labelBackgroundColor=none;fontFamily=Verdana;fontSize=12;fontColor=#000000;rotation=90;" parent="1" vertex="1">
          <mxGeometry x="240" y="150" width="100" height="20" as="geometry" />
        </mxCell>
        <mxCell id="6d250d948d6a1778-18" value="R1" style="text;html=1;resizable=0;points=[];autosize=1;align=left;verticalAlign=top;spacingTop=-4;fontSize=16;fontFamily=Verdana" parent="1" vertex="1">
          <mxGeometry x="300" y="150" width="40" height="20" as="geometry" />
        </mxCell>
        <mxCell id="1yDFx60XTyYk_7Jug5px-20" style="edgeStyle=orthogonalEdgeStyle;rounded=0;orthogonalLoop=1;jettySize=auto;html=1;exitX=0;exitY=0.5;exitDx=0;exitDy=0;exitPerimeter=0;endArrow=oval;endFill=1;" edge="1" parent="1" source="9G8leT2x58Vvy01YkePL-13">
          <mxGeometry relative="1" as="geometry">
            <mxPoint x="480" y="280" as="targetPoint" />
          </mxGeometry>
        </mxCell>
        <mxCell id="1yDFx60XTyYk_7Jug5px-21" style="edgeStyle=orthogonalEdgeStyle;rounded=0;orthogonalLoop=1;jettySize=auto;html=1;exitX=1;exitY=0.5;exitDx=0;exitDy=0;exitPerimeter=0;endArrow=oval;endFill=1;" edge="1" parent="1" source="9G8leT2x58Vvy01YkePL-13">
          <mxGeometry relative="1" as="geometry">
            <mxPoint x="480" y="410" as="targetPoint" />
          </mxGeometry>
        </mxCell>
        <mxCell id="9G8leT2x58Vvy01YkePL-13" value="" style="verticalLabelPosition=bottom;shadow=0;dashed=0;align=center;html=1;verticalAlign=top;strokeWidth=1;shape=mxgraph.electrical.resistors.resistor_1;rounded=1;comic=0;labelBackgroundColor=none;fontFamily=Verdana;fontSize=12;rotation=90;" parent="1" vertex="1">
          <mxGeometry x="430" y="330" width="100" height="20" as="geometry" />
        </mxCell>
        <mxCell id="9G8leT2x58Vvy01YkePL-14" value="R2" style="text;html=1;resizable=0;points=[];autosize=1;align=left;verticalAlign=top;spacingTop=-4;fontSize=16;fontFamily=Verdana" parent="1" vertex="1">
          <mxGeometry x="440" y="330" width="40" height="20" as="geometry" />
        </mxCell>
        <mxCell id="1yDFx60XTyYk_7Jug5px-18" style="edgeStyle=orthogonalEdgeStyle;rounded=0;orthogonalLoop=1;jettySize=auto;html=1;exitX=1;exitY=0.5;exitDx=0;exitDy=0;exitPerimeter=0;endArrow=oval;endFill=1;" edge="1" parent="1" source="1yDFx60XTyYk_7Jug5px-1">
          <mxGeometry relative="1" as="geometry">
            <mxPoint x="740" y="280" as="targetPoint" />
          </mxGeometry>
        </mxCell>
        <mxCell id="1yDFx60XTyYk_7Jug5px-19" style="edgeStyle=orthogonalEdgeStyle;rounded=0;orthogonalLoop=1;jettySize=auto;html=1;exitX=0;exitY=0.5;exitDx=0;exitDy=0;exitPerimeter=0;entryX=0;entryY=0.5;entryDx=0;entryDy=0;entryPerimeter=0;endArrow=none;endFill=0;" edge="1" parent="1" source="1yDFx60XTyYk_7Jug5px-1" target="6d250d948d6a1778-6">
          <mxGeometry relative="1" as="geometry" />
        </mxCell>
        <mxCell id="1yDFx60XTyYk_7Jug5px-1" value="" style="pointerEvents=1;verticalLabelPosition=bottom;shadow=0;dashed=0;align=center;html=1;verticalAlign=top;shape=mxgraph.electrical.signal_sources.ac_source;" vertex="1" parent="1">
          <mxGeometry x="575" y="60" width="60" height="60" as="geometry" />
        </mxCell>
        <mxCell id="1yDFx60XTyYk_7Jug5px-23" style="edgeStyle=orthogonalEdgeStyle;rounded=0;orthogonalLoop=1;jettySize=auto;html=1;exitX=0.5;exitY=1;exitDx=0;exitDy=0;exitPerimeter=0;entryX=1;entryY=0.5;entryDx=0;entryDy=0;entryPerimeter=0;endArrow=none;endFill=0;" edge="1" parent="1" source="1yDFx60XTyYk_7Jug5px-2" target="1yDFx60XTyYk_7Jug5px-10">
          <mxGeometry relative="1" as="geometry" />
        </mxCell>
        <mxCell id="1yDFx60XTyYk_7Jug5px-2" value="" style="pointerEvents=1;verticalLabelPosition=bottom;shadow=0;dashed=0;align=center;html=1;verticalAlign=top;shape=mxgraph.electrical.signal_sources.ac_source;" vertex="1" parent="1">
          <mxGeometry x="710" y="317" width="60" height="60" as="geometry" />
        </mxCell>
        <mxCell id="1yDFx60XTyYk_7Jug5px-3" value="&lt;font style=&quot;font-size: 16px&quot;&gt;U1&lt;/font&gt;" style="text;html=1;align=center;verticalAlign=middle;resizable=0;points=[];autosize=1;" vertex="1" parent="1">
          <mxGeometry x="585" y="40" width="40" height="20" as="geometry" />
        </mxCell>
        <mxCell id="1yDFx60XTyYk_7Jug5px-4" value="" style="endArrow=classic;html=1;" edge="1" parent="1">
          <mxGeometry width="50" height="50" relative="1" as="geometry">
            <mxPoint x="550" y="30" as="sourcePoint" />
            <mxPoint x="660" y="30" as="targetPoint" />
          </mxGeometry>
        </mxCell>
        <mxCell id="1yDFx60XTyYk_7Jug5px-5" value="" style="endArrow=classic;html=1;" edge="1" parent="1">
          <mxGeometry width="50" height="50" relative="1" as="geometry">
            <mxPoint x="789" y="307" as="sourcePoint" />
            <mxPoint x="789" y="387" as="targetPoint" />
          </mxGeometry>
        </mxCell>
        <mxCell id="1yDFx60XTyYk_7Jug5px-6" value="&lt;font style=&quot;font-size: 16px&quot;&gt;U2&lt;/font&gt;" style="text;html=1;align=center;verticalAlign=middle;resizable=0;points=[];autosize=1;" vertex="1" parent="1">
          <mxGeometry x="790" y="337" width="40" height="20" as="geometry" />
        </mxCell>
        <mxCell id="1yDFx60XTyYk_7Jug5px-8" value="" style="pointerEvents=1;verticalLabelPosition=bottom;shadow=0;dashed=0;align=center;html=1;verticalAlign=top;shape=mxgraph.electrical.inductors.inductor_5;" vertex="1" parent="1">
          <mxGeometry x="310" y="400" width="100" height="14" as="geometry" />
        </mxCell>
        <mxCell id="1yDFx60XTyYk_7Jug5px-17" style="edgeStyle=orthogonalEdgeStyle;rounded=0;orthogonalLoop=1;jettySize=auto;html=1;exitX=1;exitY=0.645;exitDx=0;exitDy=0;exitPerimeter=0;endArrow=none;endFill=0;entryX=0.5;entryY=0;entryDx=0;entryDy=0;entryPerimeter=0;" edge="1" parent="1" source="1yDFx60XTyYk_7Jug5px-9" target="1yDFx60XTyYk_7Jug5px-2">
          <mxGeometry relative="1" as="geometry">
            <mxPoint x="740" y="279" as="targetPoint" />
          </mxGeometry>
        </mxCell>
        <mxCell id="1yDFx60XTyYk_7Jug5px-9" value="" style="pointerEvents=1;verticalLabelPosition=bottom;shadow=0;dashed=0;align=center;html=1;verticalAlign=top;shape=mxgraph.electrical.inductors.inductor_5;" vertex="1" parent="1">
          <mxGeometry x="545" y="270" width="100" height="14" as="geometry" />
        </mxCell>
        <mxCell id="1yDFx60XTyYk_7Jug5px-22" style="edgeStyle=orthogonalEdgeStyle;rounded=0;orthogonalLoop=1;jettySize=auto;html=1;exitX=0;exitY=0.5;exitDx=0;exitDy=0;exitPerimeter=0;entryX=1;entryY=0.645;entryDx=0;entryDy=0;entryPerimeter=0;endArrow=none;endFill=0;" edge="1" parent="1" source="1yDFx60XTyYk_7Jug5px-10" target="1yDFx60XTyYk_7Jug5px-8">
          <mxGeometry relative="1" as="geometry" />
        </mxCell>
        <mxCell id="1yDFx60XTyYk_7Jug5px-10" value="" style="pointerEvents=1;verticalLabelPosition=bottom;shadow=0;dashed=0;align=center;html=1;verticalAlign=top;shape=mxgraph.electrical.capacitors.capacitor_1;" vertex="1" parent="1">
          <mxGeometry x="545" y="377" width="100" height="60" as="geometry" />
        </mxCell>
        <mxCell id="1yDFx60XTyYk_7Jug5px-14" style="edgeStyle=orthogonalEdgeStyle;rounded=0;orthogonalLoop=1;jettySize=auto;html=1;exitX=0;exitY=0.5;exitDx=0;exitDy=0;exitPerimeter=0;endArrow=none;endFill=0;entryX=0;entryY=0.645;entryDx=0;entryDy=0;entryPerimeter=0;" edge="1" parent="1" source="1yDFx60XTyYk_7Jug5px-11" target="1yDFx60XTyYk_7Jug5px-8">
          <mxGeometry relative="1" as="geometry">
            <mxPoint x="290" y="280" as="targetPoint" />
          </mxGeometry>
        </mxCell>
        <mxCell id="1yDFx60XTyYk_7Jug5px-15" style="edgeStyle=orthogonalEdgeStyle;rounded=0;orthogonalLoop=1;jettySize=auto;html=1;exitX=1;exitY=0.5;exitDx=0;exitDy=0;exitPerimeter=0;entryX=0;entryY=0.645;entryDx=0;entryDy=0;entryPerimeter=0;endArrow=none;endFill=0;" edge="1" parent="1" source="1yDFx60XTyYk_7Jug5px-11" target="1yDFx60XTyYk_7Jug5px-9">
          <mxGeometry relative="1" as="geometry">
            <Array as="points">
              <mxPoint x="480" y="277" />
              <mxPoint x="480" y="279" />
            </Array>
          </mxGeometry>
        </mxCell>
        <mxCell id="1yDFx60XTyYk_7Jug5px-11" value="" style="pointerEvents=1;verticalLabelPosition=bottom;shadow=0;dashed=0;align=center;html=1;verticalAlign=top;shape=mxgraph.electrical.capacitors.capacitor_1;" vertex="1" parent="1">
          <mxGeometry x="320" y="247" width="100" height="60" as="geometry" />
        </mxCell>
        <mxCell id="1yDFx60XTyYk_7Jug5px-24" value="L2" style="text;html=1;resizable=0;points=[];autosize=1;align=left;verticalAlign=top;spacingTop=-4;fontSize=16;fontFamily=Verdana" vertex="1" parent="1">
          <mxGeometry x="585" y="240" width="30" height="20" as="geometry" />
        </mxCell>
        <mxCell id="1yDFx60XTyYk_7Jug5px-25" value="L1" style="text;html=1;resizable=0;points=[];autosize=1;align=left;verticalAlign=top;spacingTop=-4;fontSize=16;fontFamily=Verdana" vertex="1" parent="1">
          <mxGeometry x="345" y="370" width="30" height="20" as="geometry" />
        </mxCell>
        <mxCell id="1yDFx60XTyYk_7Jug5px-26" value="C1" style="text;html=1;resizable=0;points=[];autosize=1;align=left;verticalAlign=top;spacingTop=-4;fontSize=16;fontFamily=Verdana" vertex="1" parent="1">
          <mxGeometry x="360" y="220" width="40" height="20" as="geometry" />
        </mxCell>
        <mxCell id="1yDFx60XTyYk_7Jug5px-27" value="C2" style="text;html=1;resizable=0;points=[];autosize=1;align=left;verticalAlign=top;spacingTop=-4;fontSize=16;fontFamily=Verdana" vertex="1" parent="1">
          <mxGeometry x="580" y="350" width="40" height="20" as="geometry" />
        </mxCell>
        <mxCell id="1yDFx60XTyYk_7Jug5px-28" value="" style="verticalLabelPosition=bottom;shadow=0;dashed=0;align=center;html=1;verticalAlign=top;shape=mxgraph.electrical.rot_mech.verticalLabelPosition=bottom;shadow=0;dashed=0;align=center;fillColor=strokeColor;html=1;verticalAlign=top;strokeWidth=1;shape=mxgraph.electrical.rot_mech.rotation;rotation=-180;flipH=1;" vertex="1" parent="1">
          <mxGeometry x="440" y="130" width="120" height="90" as="geometry" />
        </mxCell>
        <mxCell id="1yDFx60XTyYk_7Jug5px-32" value="&lt;font style=&quot;font-size: 16px&quot;&gt;IA&lt;/font&gt;" style="text;html=1;align=center;verticalAlign=middle;resizable=0;points=[];autosize=1;" vertex="1" parent="1">
          <mxGeometry x="485" y="170" width="30" height="20" as="geometry" />
        </mxCell>
        <mxCell id="1yDFx60XTyYk_7Jug5px-35" value="" style="verticalLabelPosition=bottom;shadow=0;dashed=0;align=center;html=1;verticalAlign=top;shape=mxgraph.electrical.rot_mech.verticalLabelPosition=bottom;shadow=0;dashed=0;align=center;fillColor=strokeColor;html=1;verticalAlign=top;strokeWidth=1;shape=mxgraph.electrical.rot_mech.rotation;rotation=-180;flipH=1;" vertex="1" parent="1">
          <mxGeometry x="350" y="303.5" width="90" height="73" as="geometry" />
        </mxCell>
        <mxCell id="1yDFx60XTyYk_7Jug5px-36" value="&lt;font style=&quot;font-size: 16px&quot;&gt;IB&lt;/font&gt;" style="text;html=1;align=center;verticalAlign=middle;resizable=0;points=[];autosize=1;" vertex="1" parent="1">
          <mxGeometry x="380" y="337" width="30" height="20" as="geometry" />
        </mxCell>
        <mxCell id="1yDFx60XTyYk_7Jug5px-37" value="" style="verticalLabelPosition=bottom;shadow=0;dashed=0;align=center;html=1;verticalAlign=top;shape=mxgraph.electrical.rot_mech.verticalLabelPosition=bottom;shadow=0;dashed=0;align=center;fillColor=strokeColor;html=1;verticalAlign=top;strokeWidth=1;shape=mxgraph.electrical.rot_mech.rotation;rotation=-180;flipH=1;" vertex="1" parent="1">
          <mxGeometry x="560" y="290" width="90" height="67.5" as="geometry" />
        </mxCell>
        <mxCell id="1yDFx60XTyYk_7Jug5px-38" value="&lt;font style=&quot;font-size: 16px&quot;&gt;IC&lt;/font&gt;" style="text;html=1;align=center;verticalAlign=middle;resizable=0;points=[];autosize=1;" vertex="1" parent="1">
          <mxGeometry x="590" y="317" width="30" height="20" as="geometry" />
        </mxCell>
      </root>
    </mxGraphModel>
  </diagram>
</mxfile>
